<svg xmlns="http://www.w3.org/2000/svg" xmlns:xlink="http://www.w3.org/1999/xlink" width="500" zoomAndPan="magnify" viewBox="0 0 375 374.999991" height="500" preserveAspectRatio="xMidYMid meet" version="1.0"><rect x="-37.5" width="450" fill="#ffffff" y="-37.499999" height="449.999989" fill-opacity="1"/><rect x="-37.5" width="450" fill="#ffffff" y="-37.499999" height="449.999989" fill-opacity="1"/><rect x="-37.5" width="450" fill="#fbe639" y="-37.499999" height="449.999989" fill-opacity="1"/><path fill="#98d6fc" d="M 339.285156 0 L 142.855469 0 C 142.273438 0 141.6875 0.0273438 141.105469 0.0859375 C 140.523438 0.144531 139.945312 0.230469 139.375 0.34375 C 138.800781 0.457031 138.234375 0.597656 137.671875 0.769531 C 137.113281 0.9375 136.5625 1.136719 136.023438 1.359375 C 135.484375 1.582031 134.957031 1.832031 134.4375 2.109375 C 133.921875 2.382812 133.421875 2.683594 132.9375 3.007812 C 132.449219 3.335938 131.980469 3.683594 131.527344 4.054688 C 131.078125 4.425781 130.644531 4.816406 130.230469 5.230469 C 129.816406 5.644531 129.425781 6.078125 129.054688 6.527344 C 128.683594 6.980469 128.335938 7.449219 128.007812 7.9375 C 127.683594 8.421875 127.382812 8.921875 127.109375 9.4375 C 126.832031 9.957031 126.582031 10.484375 126.359375 11.023438 C 126.136719 11.5625 125.9375 12.113281 125.769531 12.671875 C 125.597656 13.234375 125.457031 13.800781 125.34375 14.375 C 125.230469 14.945312 125.144531 15.523438 125.085938 16.105469 C 125.027344 16.6875 125 17.273438 125 17.855469 L 125 133.929688 C 125 134.511719 125.027344 135.097656 125.085938 135.679688 C 125.144531 136.261719 125.230469 136.839844 125.34375 137.414062 C 125.457031 137.984375 125.597656 138.550781 125.769531 139.113281 C 125.9375 139.671875 126.136719 140.222656 126.359375 140.761719 C 126.582031 141.300781 126.832031 141.832031 127.109375 142.347656 C 127.382812 142.863281 127.683594 143.363281 128.007812 143.847656 C 128.335938 144.335938 128.683594 144.804688 129.054688 145.257812 C 129.425781 145.710938 129.816406 146.140625 130.230469 146.554688 C 130.644531 146.96875 131.078125 147.359375 131.527344 147.730469 C 131.980469 148.101562 132.449219 148.453125 132.9375 148.777344 C 133.421875 149.101562 133.921875 149.402344 134.4375 149.675781 C 134.957031 149.953125 135.484375 150.203125 136.023438 150.425781 C 136.5625 150.648438 137.113281 150.847656 137.671875 151.015625 C 138.234375 151.1875 138.800781 151.328125 139.375 151.441406 C 139.945312 151.558594 140.523438 151.640625 141.105469 151.699219 C 141.6875 151.757812 142.273438 151.785156 142.855469 151.785156 L 208.125 151.785156 L 240.089844 187.5 L 271.964844 151.785156 L 339.285156 151.785156 C 339.871094 151.785156 340.453125 151.757812 341.035156 151.699219 C 341.617188 151.640625 342.195312 151.558594 342.769531 151.441406 C 343.34375 151.328125 343.910156 151.1875 344.46875 151.015625 C 345.027344 150.847656 345.578125 150.648438 346.121094 150.425781 C 346.660156 150.203125 347.1875 149.953125 347.703125 149.675781 C 348.21875 149.402344 348.71875 149.101562 349.207031 148.777344 C 349.691406 148.453125 350.160156 148.101562 350.613281 147.730469 C 351.066406 147.359375 351.5 146.96875 351.914062 146.554688 C 352.324219 146.140625 352.71875 145.710938 353.089844 145.257812 C 353.460938 144.804688 353.808594 144.335938 354.132812 143.847656 C 354.457031 143.363281 354.757812 142.863281 355.035156 142.347656 C 355.308594 141.832031 355.558594 141.300781 355.785156 140.761719 C 356.007812 140.222656 356.203125 139.671875 356.375 139.113281 C 356.542969 138.550781 356.6875 137.984375 356.800781 137.414062 C 356.914062 136.839844 357 136.261719 357.058594 135.679688 C 357.113281 135.097656 357.144531 134.511719 357.144531 133.929688 L 357.144531 17.855469 C 357.144531 17.273438 357.113281 16.6875 357.058594 16.105469 C 357 15.523438 356.914062 14.945312 356.800781 14.375 C 356.6875 13.800781 356.542969 13.234375 356.375 12.671875 C 356.203125 12.113281 356.007812 11.5625 355.785156 11.023438 C 355.558594 10.484375 355.308594 9.957031 355.035156 9.4375 C 354.757812 8.921875 354.457031 8.421875 354.132812 7.9375 C 353.808594 7.449219 353.460938 6.980469 353.089844 6.527344 C 352.71875 6.078125 352.324219 5.644531 351.914062 5.230469 C 351.5 4.816406 351.066406 4.425781 350.613281 4.054688 C 350.160156 3.683594 349.691406 3.335938 349.207031 3.007812 C 348.71875 2.683594 348.21875 2.382812 347.703125 2.109375 C 347.1875 1.832031 346.660156 1.582031 346.121094 1.359375 C 345.578125 1.136719 345.027344 0.9375 344.46875 0.769531 C 343.910156 0.597656 343.34375 0.457031 342.769531 0.34375 C 342.195312 0.230469 341.617188 0.144531 341.035156 0.0859375 C 340.453125 0.0273438 339.871094 0 339.285156 0 Z M 339.285156 0 " fill-opacity="1" fill-rule="nonzero"/><path fill="#446c9e" d="M 357.144531 187.5 L 160.714844 187.5 C 160.128906 187.5 159.546875 187.527344 158.964844 187.585938 C 158.382812 187.644531 157.804688 187.730469 157.230469 187.84375 C 156.65625 187.957031 156.089844 188.097656 155.53125 188.269531 C 154.972656 188.4375 154.421875 188.636719 153.878906 188.859375 C 153.339844 189.082031 152.8125 189.332031 152.296875 189.609375 C 151.78125 189.882812 151.28125 190.183594 150.792969 190.507812 C 150.308594 190.835938 149.839844 191.183594 149.386719 191.554688 C 148.933594 191.925781 148.5 192.316406 148.085938 192.730469 C 147.675781 193.144531 147.28125 193.578125 146.910156 194.027344 C 146.539062 194.480469 146.191406 194.949219 145.867188 195.4375 C 145.542969 195.921875 145.242188 196.421875 144.964844 196.9375 C 144.691406 197.457031 144.441406 197.984375 144.214844 198.523438 C 143.992188 199.0625 143.796875 199.613281 143.625 200.171875 C 143.457031 200.734375 143.3125 201.300781 143.199219 201.875 C 143.085938 202.445312 143 203.023438 142.941406 203.605469 C 142.886719 204.1875 142.855469 204.773438 142.855469 205.355469 L 142.855469 321.429688 C 142.855469 322.011719 142.886719 322.597656 142.941406 323.179688 C 143 323.761719 143.085938 324.339844 143.199219 324.914062 C 143.3125 325.484375 143.457031 326.050781 143.625 326.613281 C 143.796875 327.171875 143.992188 327.722656 144.214844 328.261719 C 144.441406 328.800781 144.691406 329.332031 144.964844 329.847656 C 145.242188 330.363281 145.542969 330.863281 145.867188 331.347656 C 146.191406 331.835938 146.539062 332.304688 146.910156 332.757812 C 147.28125 333.210938 147.671875 333.640625 148.085938 334.054688 C 148.5 334.46875 148.933594 334.859375 149.386719 335.230469 C 149.839844 335.601562 150.308594 335.953125 150.792969 336.277344 C 151.28125 336.601562 151.78125 336.902344 152.296875 337.175781 C 152.8125 337.453125 153.339844 337.703125 153.878906 337.925781 C 154.421875 338.148438 154.972656 338.347656 155.53125 338.515625 C 156.089844 338.6875 156.65625 338.828125 157.230469 338.941406 C 157.804688 339.058594 158.382812 339.140625 158.964844 339.199219 C 159.546875 339.257812 160.128906 339.285156 160.714844 339.285156 L 225.980469 339.285156 L 257.945312 375 L 289.820312 339.285156 L 357.144531 339.285156 C 357.726562 339.285156 358.3125 339.257812 358.894531 339.199219 C 359.476562 339.140625 360.054688 339.058594 360.625 338.941406 C 361.199219 338.828125 361.765625 338.6875 362.328125 338.515625 C 362.886719 338.347656 363.4375 338.148438 363.976562 337.925781 C 364.515625 337.703125 365.042969 337.453125 365.5625 337.175781 C 366.078125 336.902344 366.578125 336.601562 367.0625 336.277344 C 367.550781 335.953125 368.019531 335.601562 368.472656 335.230469 C 368.921875 334.859375 369.355469 334.46875 369.769531 334.054688 C 370.183594 333.640625 370.574219 333.210938 370.945312 332.757812 C 371.316406 332.304688 371.664062 331.835938 371.992188 331.347656 C 372.316406 330.863281 372.617188 330.363281 372.890625 329.847656 C 373.167969 329.332031 373.417969 328.800781 373.640625 328.261719 C 373.863281 327.722656 374.0625 327.171875 374.230469 326.613281 C 374.402344 326.050781 374.542969 325.484375 374.65625 324.914062 C 374.769531 324.339844 374.855469 323.761719 374.914062 323.179688 C 374.972656 322.597656 375 322.011719 375 321.429688 L 375 205.355469 C 375 204.773438 374.972656 204.1875 374.914062 203.605469 C 374.855469 203.023438 374.769531 202.445312 374.65625 201.875 C 374.542969 201.300781 374.402344 200.734375 374.230469 200.171875 C 374.0625 199.613281 373.863281 199.0625 373.640625 198.523438 C 373.417969 197.984375 373.167969 197.457031 372.890625 196.9375 C 372.617188 196.421875 372.316406 195.921875 371.992188 195.4375 C 371.664062 194.949219 371.316406 194.480469 370.945312 194.027344 C 370.574219 193.578125 370.183594 193.144531 369.769531 192.730469 C 369.355469 192.316406 368.921875 191.925781 368.472656 191.554688 C 368.019531 191.183594 367.550781 190.835938 367.0625 190.507812 C 366.578125 190.183594 366.078125 189.882812 365.5625 189.609375 C 365.042969 189.332031 364.515625 189.082031 363.976562 188.859375 C 363.4375 188.636719 362.886719 188.4375 362.328125 188.269531 C 361.765625 188.097656 361.199219 187.957031 360.625 187.84375 C 360.054688 187.730469 359.476562 187.644531 358.894531 187.585938 C 358.3125 187.527344 357.726562 187.5 357.144531 187.5 Z M 357.144531 187.5 " fill-opacity="1" fill-rule="nonzero"/><path fill="#fbe639" d="M 312.5 267.855469 C 312.5 269.613281 312.414062 271.363281 312.242188 273.109375 C 312.070312 274.855469 311.8125 276.585938 311.46875 278.308594 C 311.128906 280.027344 310.703125 281.730469 310.191406 283.40625 C 309.683594 285.085938 309.09375 286.738281 308.421875 288.359375 C 307.75 289.980469 307 291.5625 306.175781 293.109375 C 305.347656 294.65625 304.445312 296.160156 303.472656 297.621094 C 302.496094 299.078125 301.453125 300.484375 300.339844 301.84375 C 299.226562 303.199219 298.050781 304.496094 296.808594 305.738281 C 295.570312 306.976562 294.269531 308.15625 292.914062 309.269531 C 291.558594 310.382812 290.148438 311.425781 288.691406 312.398438 C 287.230469 313.375 285.730469 314.277344 284.183594 315.101562 C 282.632812 315.929688 281.050781 316.679688 279.429688 317.351562 C 277.808594 318.023438 276.160156 318.613281 274.480469 319.121094 C 272.800781 319.632812 271.101562 320.058594 269.378906 320.398438 C 267.660156 320.742188 265.925781 321 264.179688 321.171875 C 262.433594 321.34375 260.683594 321.429688 258.929688 321.429688 C 257.175781 321.429688 255.421875 321.34375 253.675781 321.171875 C 251.929688 321 250.199219 320.742188 248.476562 320.398438 C 246.757812 320.058594 245.054688 319.632812 243.378906 319.121094 C 241.699219 318.613281 240.046875 318.023438 238.425781 317.351562 C 236.808594 316.679688 235.222656 315.929688 233.675781 315.101562 C 232.128906 314.277344 230.625 313.375 229.164062 312.398438 C 227.707031 311.425781 226.300781 310.382812 224.941406 309.269531 C 223.585938 308.15625 222.289062 306.976562 221.046875 305.738281 C 219.808594 304.496094 218.628906 303.199219 217.515625 301.84375 C 216.402344 300.484375 215.359375 299.078125 214.386719 297.621094 C 213.410156 296.160156 212.511719 294.65625 211.683594 293.109375 C 210.855469 291.5625 210.105469 289.980469 209.433594 288.359375 C 208.761719 286.738281 208.171875 285.085938 207.664062 283.40625 C 207.15625 281.730469 206.730469 280.027344 206.386719 278.308594 C 206.042969 276.585938 205.785156 274.855469 205.613281 273.109375 C 205.441406 271.363281 205.355469 269.613281 205.355469 267.855469 C 205.355469 266.101562 205.441406 264.351562 205.613281 262.605469 C 205.785156 260.859375 206.042969 259.125 206.386719 257.40625 C 206.730469 255.683594 207.15625 253.984375 207.664062 252.304688 C 208.171875 250.628906 208.761719 248.976562 209.433594 247.355469 C 210.105469 245.734375 210.855469 244.152344 211.683594 242.605469 C 212.511719 241.054688 213.410156 239.554688 214.386719 238.09375 C 215.359375 236.636719 216.402344 235.226562 217.515625 233.871094 C 218.628906 232.515625 219.808594 231.21875 221.046875 229.976562 C 222.289062 228.734375 223.585938 227.558594 224.941406 226.445312 C 226.300781 225.332031 227.707031 224.289062 229.164062 223.3125 C 230.625 222.339844 232.128906 221.4375 233.675781 220.609375 C 235.222656 219.785156 236.808594 219.035156 238.425781 218.363281 C 240.046875 217.691406 241.699219 217.101562 243.378906 216.59375 C 245.054688 216.082031 246.757812 215.65625 248.476562 215.316406 C 250.199219 214.972656 251.929688 214.714844 253.675781 214.542969 C 255.421875 214.371094 257.175781 214.285156 258.929688 214.285156 C 260.683594 214.285156 262.433594 214.371094 264.179688 214.542969 C 265.925781 214.714844 267.660156 214.972656 269.378906 215.316406 C 271.101562 215.65625 272.800781 216.082031 274.480469 216.59375 C 276.160156 217.101562 277.808594 217.691406 279.429688 218.363281 C 281.050781 219.035156 282.632812 219.785156 284.183594 220.609375 C 285.730469 221.4375 287.230469 222.339844 288.691406 223.3125 C 290.148438 224.289062 291.558594 225.332031 292.914062 226.445312 C 294.269531 227.558594 295.570312 228.734375 296.808594 229.976562 C 298.050781 231.21875 299.226562 232.515625 300.339844 233.871094 C 301.453125 235.226562 302.496094 236.636719 303.472656 238.09375 C 304.445312 239.554688 305.347656 241.054688 306.175781 242.605469 C 307 244.152344 307.75 245.734375 308.421875 247.355469 C 309.09375 248.976562 309.683594 250.628906 310.191406 252.304688 C 310.703125 253.984375 311.128906 255.683594 311.46875 257.40625 C 311.8125 259.125 312.070312 260.859375 312.242188 262.605469 C 312.414062 264.351562 312.5 266.101562 312.5 267.855469 Z M 312.5 267.855469 " fill-opacity="1" fill-rule="nonzero"/><path fill="#446c9e" d="M 258.929688 299.105469 C 258.050781 299.105469 257.175781 299.0625 256.304688 298.976562 C 255.429688 298.890625 254.5625 298.761719 253.703125 298.59375 C 252.84375 298.421875 251.992188 298.207031 251.152344 297.953125 C 250.3125 297.699219 249.488281 297.402344 248.679688 297.066406 C 247.867188 296.734375 247.074219 296.359375 246.300781 295.945312 C 245.527344 295.53125 244.777344 295.082031 244.046875 294.59375 C 243.316406 294.105469 242.613281 293.582031 241.9375 293.027344 C 241.257812 292.46875 240.609375 291.882812 239.988281 291.261719 C 239.367188 290.640625 238.78125 289.992188 238.222656 289.3125 C 237.667969 288.636719 237.144531 287.933594 236.65625 287.203125 C 236.167969 286.472656 235.71875 285.722656 235.304688 284.949219 C 234.890625 284.175781 234.515625 283.382812 234.183594 282.570312 C 233.847656 281.761719 233.550781 280.9375 233.296875 280.097656 C 233.042969 279.257812 232.828125 278.40625 232.65625 277.546875 C 232.488281 276.6875 232.359375 275.820312 232.273438 274.945312 C 232.1875 274.074219 232.144531 273.199219 232.144531 272.320312 C 232.144531 271.734375 232.199219 271.15625 232.3125 270.578125 C 232.429688 270.003906 232.597656 269.445312 232.824219 268.90625 C 233.046875 268.363281 233.320312 267.847656 233.648438 267.359375 C 233.972656 266.875 234.34375 266.421875 234.757812 266.007812 C 235.171875 265.59375 235.625 265.222656 236.109375 264.898438 C 236.597656 264.570312 237.113281 264.296875 237.65625 264.074219 C 238.195312 263.847656 238.753906 263.679688 239.328125 263.5625 C 239.90625 263.449219 240.484375 263.394531 241.070312 263.394531 C 241.65625 263.394531 242.238281 263.449219 242.8125 263.5625 C 243.386719 263.679688 243.945312 263.847656 244.488281 264.074219 C 245.03125 264.296875 245.542969 264.570312 246.03125 264.898438 C 246.519531 265.222656 246.96875 265.59375 247.386719 266.007812 C 247.800781 266.421875 248.167969 266.875 248.496094 267.359375 C 248.820312 267.847656 249.097656 268.363281 249.320312 268.90625 C 249.542969 269.445312 249.714844 270.003906 249.828125 270.578125 C 249.941406 271.15625 250 271.734375 250 272.320312 C 250 272.90625 250.058594 273.488281 250.171875 274.0625 C 250.285156 274.636719 250.457031 275.195312 250.679688 275.738281 C 250.902344 276.28125 251.179688 276.792969 251.503906 277.28125 C 251.832031 277.769531 252.199219 278.21875 252.613281 278.636719 C 253.03125 279.050781 253.480469 279.417969 253.96875 279.746094 C 254.457031 280.070312 254.96875 280.347656 255.511719 280.570312 C 256.054688 280.792969 256.613281 280.964844 257.1875 281.078125 C 257.761719 281.191406 258.34375 281.25 258.929688 281.25 C 259.515625 281.25 260.09375 281.191406 260.671875 281.078125 C 261.246094 280.964844 261.804688 280.792969 262.34375 280.570312 C 262.886719 280.347656 263.402344 280.070312 263.890625 279.746094 C 264.375 279.417969 264.828125 279.050781 265.242188 278.636719 C 265.65625 278.21875 266.027344 277.769531 266.351562 277.28125 C 266.679688 276.792969 266.953125 276.28125 267.175781 275.738281 C 267.402344 275.195312 267.570312 274.636719 267.683594 274.0625 C 267.800781 273.488281 267.855469 272.90625 267.855469 272.320312 C 267.855469 271.734375 267.914062 271.15625 268.027344 270.578125 C 268.144531 270.003906 268.3125 269.445312 268.535156 268.90625 C 268.761719 268.363281 269.035156 267.847656 269.363281 267.359375 C 269.6875 266.875 270.058594 266.421875 270.472656 266.007812 C 270.886719 265.59375 271.335938 265.222656 271.824219 264.898438 C 272.3125 264.570312 272.828125 264.296875 273.367188 264.074219 C 273.910156 263.847656 274.46875 263.679688 275.042969 263.5625 C 275.617188 263.449219 276.199219 263.394531 276.785156 263.394531 C 277.371094 263.394531 277.953125 263.449219 278.527344 263.5625 C 279.101562 263.679688 279.660156 263.847656 280.203125 264.074219 C 280.742188 264.296875 281.257812 264.570312 281.746094 264.898438 C 282.234375 265.222656 282.683594 265.59375 283.097656 266.007812 C 283.511719 266.421875 283.882812 266.875 284.210938 267.359375 C 284.535156 267.847656 284.808594 268.363281 285.035156 268.90625 C 285.257812 269.445312 285.429688 270.003906 285.542969 270.578125 C 285.65625 271.15625 285.714844 271.734375 285.714844 272.320312 C 285.714844 273.199219 285.671875 274.074219 285.585938 274.945312 C 285.5 275.820312 285.371094 276.6875 285.199219 277.546875 C 285.027344 278.40625 284.816406 279.257812 284.5625 280.097656 C 284.304688 280.9375 284.011719 281.761719 283.675781 282.570312 C 283.339844 283.382812 282.964844 284.175781 282.550781 284.949219 C 282.136719 285.722656 281.6875 286.472656 281.199219 287.203125 C 280.710938 287.933594 280.191406 288.636719 279.632812 289.3125 C 279.078125 289.992188 278.488281 290.640625 277.867188 291.261719 C 277.25 291.882812 276.597656 292.46875 275.921875 293.027344 C 275.242188 293.582031 274.539062 294.105469 273.808594 294.59375 C 273.082031 295.082031 272.328125 295.53125 271.554688 295.945312 C 270.78125 296.359375 269.988281 296.734375 269.179688 297.066406 C 268.367188 297.402344 267.542969 297.699219 266.703125 297.953125 C 265.863281 298.207031 265.015625 298.421875 264.152344 298.59375 C 263.292969 298.761719 262.425781 298.890625 261.554688 298.976562 C 260.679688 299.0625 259.804688 299.105469 258.929688 299.105469 Z M 258.929688 299.105469 " fill-opacity="1" fill-rule="nonzero"/><path fill="#f47f8f" d="M 214.285156 107.144531 L 17.855469 107.144531 C 17.273438 107.144531 16.6875 107.171875 16.105469 107.230469 C 15.523438 107.285156 14.945312 107.371094 14.375 107.484375 C 13.800781 107.601562 13.234375 107.742188 12.671875 107.910156 C 12.113281 108.082031 11.5625 108.277344 11.023438 108.503906 C 10.484375 108.726562 9.957031 108.976562 9.4375 109.25 C 8.921875 109.527344 8.421875 109.828125 7.9375 110.152344 C 7.449219 110.476562 6.980469 110.824219 6.527344 111.195312 C 6.078125 111.566406 5.644531 111.960938 5.230469 112.375 C 4.816406 112.785156 4.425781 113.21875 4.054688 113.671875 C 3.683594 114.125 3.335938 114.59375 3.007812 115.078125 C 2.683594 115.566406 2.382812 116.066406 2.109375 116.582031 C 1.832031 117.097656 1.582031 117.625 1.359375 118.167969 C 1.136719 118.707031 0.9375 119.257812 0.769531 119.816406 C 0.597656 120.375 0.457031 120.941406 0.34375 121.515625 C 0.230469 122.089844 0.144531 122.667969 0.0859375 123.25 C 0.0273438 123.832031 0 124.414062 0 125 L 0 241.070312 C 0 241.65625 0.0273438 242.238281 0.0859375 242.820312 C 0.144531 243.402344 0.230469 243.980469 0.34375 244.554688 C 0.457031 245.128906 0.597656 245.695312 0.769531 246.253906 C 0.9375 246.816406 1.136719 247.363281 1.359375 247.90625 C 1.582031 248.445312 1.832031 248.972656 2.109375 249.488281 C 2.382812 250.003906 2.683594 250.507812 3.007812 250.992188 C 3.335938 251.480469 3.683594 251.949219 4.054688 252.398438 C 4.425781 252.851562 4.816406 253.285156 5.230469 253.699219 C 5.644531 254.113281 6.078125 254.503906 6.527344 254.875 C 6.980469 255.246094 7.449219 255.59375 7.9375 255.917969 C 8.421875 256.242188 8.921875 256.542969 9.4375 256.820312 C 9.957031 257.09375 10.484375 257.34375 11.023438 257.570312 C 11.5625 257.792969 12.113281 257.988281 12.671875 258.160156 C 13.234375 258.328125 13.800781 258.472656 14.375 258.585938 C 14.945312 258.699219 15.523438 258.785156 16.105469 258.84375 C 16.6875 258.898438 17.273438 258.929688 17.855469 258.929688 L 83.125 258.929688 L 115.089844 294.644531 L 146.964844 258.929688 L 214.285156 258.929688 C 214.871094 258.929688 215.453125 258.898438 216.035156 258.84375 C 216.617188 258.785156 217.195312 258.699219 217.769531 258.585938 C 218.34375 258.472656 218.910156 258.328125 219.46875 258.160156 C 220.027344 257.988281 220.578125 257.792969 221.121094 257.570312 C 221.660156 257.34375 222.1875 257.09375 222.703125 256.820312 C 223.21875 256.542969 223.71875 256.242188 224.207031 255.917969 C 224.691406 255.59375 225.160156 255.246094 225.613281 254.875 C 226.066406 254.503906 226.5 254.113281 226.914062 253.699219 C 227.324219 253.285156 227.71875 252.851562 228.089844 252.398438 C 228.460938 251.949219 228.808594 251.480469 229.132812 250.992188 C 229.457031 250.507812 229.757812 250.003906 230.035156 249.488281 C 230.308594 248.972656 230.558594 248.445312 230.785156 247.90625 C 231.007812 247.363281 231.203125 246.816406 231.375 246.253906 C 231.542969 245.695312 231.6875 245.128906 231.800781 244.554688 C 231.914062 243.980469 232 243.402344 232.058594 242.820312 C 232.113281 242.238281 232.144531 241.65625 232.144531 241.070312 L 232.144531 125 C 232.144531 124.414062 232.113281 123.832031 232.058594 123.25 C 232 122.667969 231.914062 122.089844 231.800781 121.515625 C 231.6875 120.941406 231.542969 120.375 231.375 119.816406 C 231.203125 119.257812 231.007812 118.707031 230.785156 118.167969 C 230.558594 117.625 230.308594 117.097656 230.035156 116.582031 C 229.757812 116.066406 229.457031 115.566406 229.132812 115.078125 C 228.808594 114.59375 228.460938 114.125 228.089844 113.671875 C 227.71875 113.21875 227.324219 112.785156 226.914062 112.375 C 226.5 111.960938 226.066406 111.566406 225.613281 111.195312 C 225.160156 110.824219 224.691406 110.476562 224.207031 110.152344 C 223.71875 109.828125 223.21875 109.527344 222.703125 109.25 C 222.1875 108.976562 221.660156 108.726562 221.121094 108.503906 C 220.578125 108.277344 220.027344 108.082031 219.46875 107.910156 C 218.910156 107.742188 218.34375 107.601562 217.769531 107.484375 C 217.195312 107.371094 216.617188 107.285156 216.035156 107.230469 C 215.453125 107.171875 214.871094 107.144531 214.285156 107.144531 Z M 214.285156 107.144531 " fill-opacity="1" fill-rule="nonzero"/><path fill="#446c9e" d="M 285.714844 44.644531 L 169.644531 44.644531 C 169.054688 44.644531 168.476562 44.585938 167.902344 44.472656 C 167.324219 44.355469 166.769531 44.1875 166.226562 43.964844 C 165.683594 43.738281 165.167969 43.464844 164.683594 43.136719 C 164.195312 42.8125 163.742188 42.441406 163.328125 42.027344 C 162.914062 41.613281 162.542969 41.164062 162.21875 40.675781 C 161.894531 40.1875 161.617188 39.671875 161.394531 39.132812 C 161.167969 38.589844 161 38.03125 160.886719 37.457031 C 160.769531 36.882812 160.714844 36.300781 160.714844 35.714844 C 160.714844 35.128906 160.769531 34.546875 160.886719 33.972656 C 161 33.398438 161.167969 32.839844 161.394531 32.296875 C 161.617188 31.753906 161.894531 31.242188 162.21875 30.753906 C 162.542969 30.265625 162.914062 29.816406 163.328125 29.402344 C 163.742188 28.984375 164.195312 28.617188 164.683594 28.289062 C 165.167969 27.964844 165.683594 27.691406 166.226562 27.464844 C 166.769531 27.242188 167.324219 27.070312 167.902344 26.957031 C 168.476562 26.84375 169.054688 26.785156 169.644531 26.785156 L 285.714844 26.785156 C 286.300781 26.785156 286.882812 26.84375 287.457031 26.957031 C 288.03125 27.070312 288.589844 27.242188 289.132812 27.464844 C 289.671875 27.691406 290.1875 27.964844 290.675781 28.289062 C 291.160156 28.617188 291.613281 28.984375 292.027344 29.402344 C 292.441406 29.816406 292.8125 30.265625 293.136719 30.753906 C 293.464844 31.242188 293.738281 31.753906 293.964844 32.296875 C 294.1875 32.839844 294.355469 33.398438 294.472656 33.972656 C 294.585938 34.546875 294.644531 35.128906 294.644531 35.714844 C 294.644531 36.300781 294.585938 36.882812 294.472656 37.457031 C 294.355469 38.03125 294.1875 38.589844 293.964844 39.132812 C 293.738281 39.671875 293.464844 40.1875 293.136719 40.675781 C 292.8125 41.164062 292.441406 41.613281 292.027344 42.027344 C 291.613281 42.441406 291.164062 42.8125 290.675781 43.136719 C 290.1875 43.464844 289.671875 43.738281 289.132812 43.964844 C 288.589844 44.1875 288.03125 44.355469 287.457031 44.472656 C 286.882812 44.585938 286.300781 44.644531 285.714844 44.644531 Z M 285.714844 44.644531 " fill-opacity="1" fill-rule="nonzero"/><path fill="#446c9e" d="M 241.070312 80.355469 L 169.644531 80.355469 C 169.054688 80.355469 168.476562 80.300781 167.902344 80.1875 C 167.324219 80.070312 166.769531 79.902344 166.226562 79.675781 C 165.683594 79.453125 165.167969 79.179688 164.683594 78.851562 C 164.195312 78.527344 163.742188 78.15625 163.328125 77.742188 C 162.914062 77.328125 162.542969 76.875 162.21875 76.390625 C 161.894531 75.902344 161.617188 75.386719 161.394531 74.84375 C 161.167969 74.304688 161 73.746094 160.886719 73.171875 C 160.769531 72.59375 160.714844 72.015625 160.714844 71.429688 C 160.714844 70.84375 160.769531 70.261719 160.886719 69.6875 C 161 69.113281 161.167969 68.554688 161.394531 68.011719 C 161.617188 67.46875 161.894531 66.957031 162.21875 66.46875 C 162.542969 65.980469 162.914062 65.53125 163.328125 65.113281 C 163.742188 64.699219 164.195312 64.332031 164.683594 64.003906 C 165.167969 63.679688 165.683594 63.402344 166.226562 63.179688 C 166.769531 62.957031 167.324219 62.785156 167.902344 62.671875 C 168.476562 62.558594 169.054688 62.5 169.644531 62.5 L 241.070312 62.5 C 241.65625 62.5 242.238281 62.558594 242.8125 62.671875 C 243.386719 62.785156 243.945312 62.957031 244.488281 63.179688 C 245.03125 63.402344 245.542969 63.679688 246.03125 64.003906 C 246.519531 64.332031 246.96875 64.699219 247.386719 65.113281 C 247.800781 65.53125 248.167969 65.980469 248.496094 66.46875 C 248.820312 66.957031 249.097656 67.46875 249.320312 68.011719 C 249.542969 68.554688 249.714844 69.113281 249.828125 69.6875 C 249.941406 70.261719 250 70.84375 250 71.429688 C 250 72.015625 249.941406 72.59375 249.828125 73.171875 C 249.714844 73.746094 249.542969 74.304688 249.320312 74.84375 C 249.097656 75.386719 248.820312 75.902344 248.496094 76.390625 C 248.167969 76.875 247.800781 77.328125 247.386719 77.742188 C 246.96875 78.15625 246.519531 78.527344 246.03125 78.851562 C 245.542969 79.179688 245.03125 79.453125 244.488281 79.675781 C 243.945312 79.902344 243.386719 80.070312 242.8125 80.1875 C 242.238281 80.300781 241.65625 80.355469 241.070312 80.355469 Z M 241.070312 80.355469 " fill-opacity="1" fill-rule="nonzero"/><path fill="#f8f6f7" d="M 116.070312 238.214844 L 78.570312 200.804688 C 41.25 163.480469 78.570312 126.070312 115.980469 163.304688 C 153.480469 125.804688 190.894531 163.304688 153.394531 200.804688 Z M 116.070312 238.214844 " fill-opacity="1" fill-rule="nonzero"/></svg>