<svg xmlns="http://www.w3.org/2000/svg" xmlns:xlink="http://www.w3.org/1999/xlink" width="500" zoomAndPan="magnify" viewBox="0 0 375 374.999991" height="500" preserveAspectRatio="xMidYMid meet" version="1.0"><rect x="-37.5" width="450" fill="#ffffff" y="-37.499999" height="449.999989" fill-opacity="1"/><rect x="-37.5" width="450" fill="#ffffff" y="-37.499999" height="449.999989" fill-opacity="1"/><rect x="-37.5" width="450" fill="#d44c3d" y="-37.499999" height="449.999989" fill-opacity="1"/><path fill="#f2f2f2" d="M 347.816406 323.117188 L 27.113281 323.117188 C 14.585938 323.117188 4.097656 313.195312 4.097656 300.382812 L 4.097656 78.347656 C 4.097656 77.59375 4.136719 76.84375 4.210938 76.09375 C 4.285156 75.34375 4.398438 74.597656 4.546875 73.859375 C 4.695312 73.121094 4.878906 72.390625 5.097656 71.667969 C 5.316406 70.949219 5.574219 70.238281 5.863281 69.542969 C 6.152344 68.847656 6.472656 68.167969 6.828125 67.503906 C 7.183594 66.839844 7.570312 66.195312 7.992188 65.566406 C 8.410156 64.941406 8.859375 64.335938 9.335938 63.753906 C 9.816406 63.171875 10.320312 62.617188 10.851562 62.082031 C 11.386719 61.550781 11.945312 61.042969 12.527344 60.566406 C 13.109375 60.089844 13.710938 59.640625 14.339844 59.222656 C 14.964844 58.804688 15.609375 58.417969 16.273438 58.0625 C 16.9375 57.707031 17.617188 57.382812 18.3125 57.09375 C 19.011719 56.804688 19.71875 56.550781 20.4375 56.332031 C 21.160156 56.113281 21.890625 55.929688 22.628906 55.785156 C 23.367188 55.636719 24.109375 55.523438 24.859375 55.449219 C 25.609375 55.375 26.359375 55.339844 27.113281 55.335938 L 347.816406 55.335938 C 360.347656 55.335938 370.835938 65.660156 370.835938 78.371094 L 370.835938 300.097656 C 370.546875 313.21875 360.347656 323.128906 347.816406 323.128906 Z M 347.816406 323.117188 " fill-opacity="1" fill-rule="nonzero"/><path fill="#221f1f" d="M 49.949219 323.117188 L 187.15625 222.636719 L 188.027344 216.808594 L 46.507812 115.078125 L 46.222656 318.164062 Z M 49.949219 323.117188 " fill-opacity="0.098" fill-rule="nonzero"/><path fill="#d44c3d" d="M 27.113281 323.117188 C 14.414062 323.117188 4.097656 313.195312 4.097656 300.382812 L 4.097656 78.050781 C 4.097656 65.226562 14.414062 62.910156 27.113281 62.910156 C 39.8125 62.910156 50.132812 65.546875 50.132812 78.050781 L 50.132812 323.105469 Z M 27.113281 323.117188 " fill-opacity="1" fill-rule="nonzero"/><path fill="#d44c3d" d="M 27.113281 66.394531 C 43.425781 66.394531 46.632812 71.351562 46.632812 78.050781 L 46.632812 319.894531 L 27.113281 319.894531 C 16.339844 319.894531 7.59375 311.15625 7.59375 300.359375 L 7.59375 78.050781 C 7.304688 71.167969 10.800781 66.394531 27.113281 66.394531 Z M 27.113281 63.183594 C 14.414062 63.195312 4.097656 65.808594 4.097656 78.050781 L 4.097656 300.074219 C 4.085938 300.832031 4.113281 301.585938 4.175781 302.34375 C 4.242188 303.097656 4.34375 303.847656 4.484375 304.589844 C 4.625 305.335938 4.800781 306.070312 5.015625 306.796875 C 5.226562 307.523438 5.476562 308.238281 5.761719 308.941406 C 6.046875 309.640625 6.363281 310.328125 6.71875 310.996094 C 7.070312 311.667969 7.457031 312.316406 7.875 312.949219 C 8.292969 313.578125 8.742188 314.1875 9.21875 314.773438 C 9.699219 315.359375 10.207031 315.921875 10.742188 316.457031 C 11.277344 316.992188 11.835938 317.5 12.421875 317.980469 C 13.007812 318.460938 13.617188 318.910156 14.25 319.328125 C 14.878906 319.746094 15.53125 320.132812 16.199219 320.484375 C 16.867188 320.839844 17.554688 321.15625 18.253906 321.441406 C 18.957031 321.726562 19.667969 321.976562 20.394531 322.191406 C 21.121094 322.402344 21.855469 322.578125 22.601562 322.71875 C 23.34375 322.859375 24.09375 322.960938 24.847656 323.027344 C 25.601562 323.089844 26.355469 323.117188 27.113281 323.105469 L 50.132812 323.105469 L 50.132812 78.050781 C 49.949219 65.523438 39.929688 63.195312 27.113281 63.195312 Z M 347.816406 66.394531 C 362.671875 66.394531 367.339844 69.308594 367.339844 77.476562 L 367.339844 300.671875 C 367.339844 311.453125 358.605469 320.207031 347.816406 320.207031 L 328.296875 320.207031 L 328.296875 77.476562 C 328.011719 69.023438 332.960938 66.394531 347.816406 66.394531 Z M 347.816406 63.183594 C 335.003906 63.183594 324.800781 64.925781 324.800781 77.464844 L 324.800781 323.394531 L 347.816406 323.394531 C 360.632812 323.394531 370.835938 313.070312 370.835938 300.359375 L 370.835938 77.179688 C 370.546875 64.640625 360.347656 63.183594 347.816406 63.183594 Z M 347.816406 63.183594 " fill-opacity="1" fill-rule="nonzero"/><path fill="#d44c3d" d="M 347.816406 323.117188 L 324.800781 323.117188 L 324.800781 77.476562 C 324.800781 64.652344 335.117188 63.195312 347.816406 63.195312 C 360.519531 63.195312 370.835938 64.9375 370.835938 77.476562 L 370.835938 300.671875 C 370.820312 301.414062 370.765625 302.152344 370.679688 302.890625 C 370.589844 303.628906 370.46875 304.363281 370.308594 305.085938 C 370.148438 305.8125 369.957031 306.53125 369.726562 307.238281 C 369.5 307.945312 369.238281 308.636719 368.941406 309.320312 C 368.644531 310 368.316406 310.667969 367.957031 311.316406 C 367.597656 311.964844 367.203125 312.597656 366.78125 313.207031 C 366.359375 313.820312 365.910156 314.410156 365.429688 314.976562 C 364.953125 315.546875 364.445312 316.089844 363.914062 316.605469 C 363.382812 317.125 362.828125 317.617188 362.25 318.082031 C 361.667969 318.546875 361.066406 318.980469 360.445312 319.386719 C 359.824219 319.792969 359.183594 320.167969 358.527344 320.511719 C 357.867188 320.855469 357.195312 321.167969 356.507812 321.445312 C 355.816406 321.726562 355.117188 321.96875 354.40625 322.179688 C 353.691406 322.390625 352.972656 322.566406 352.242188 322.707031 C 351.515625 322.847656 350.78125 322.953125 350.039062 323.019531 C 349.300781 323.089844 348.558594 323.121094 347.816406 323.117188 Z M 347.816406 323.117188 " fill-opacity="1" fill-rule="nonzero"/><path fill="#221f1f" d="M 249.652344 323.117188 L 6.136719 87.800781 L 18.953125 93.042969 L 188.601562 215.167969 L 370.824219 81.261719 L 370.824219 300.671875 C 370.820312 301.421875 370.78125 302.167969 370.703125 302.914062 C 370.628906 303.660156 370.515625 304.402344 370.363281 305.136719 C 370.214844 305.871094 370.027344 306.597656 369.808594 307.3125 C 369.585938 308.03125 369.332031 308.734375 369.039062 309.425781 C 368.75 310.117188 368.425781 310.792969 368.070312 311.453125 C 367.710938 312.113281 367.324219 312.753906 366.902344 313.375 C 366.484375 313.996094 366.035156 314.59375 365.554688 315.171875 C 365.078125 315.746094 364.570312 316.296875 364.035156 316.824219 C 363.503906 317.351562 362.945312 317.851562 362.363281 318.324219 C 361.78125 318.796875 361.175781 319.238281 360.550781 319.648438 C 359.921875 320.0625 359.277344 320.441406 358.613281 320.789062 C 357.953125 321.140625 357.273438 321.453125 356.578125 321.734375 C 355.882812 322.019531 355.175781 322.265625 354.457031 322.476562 C 353.738281 322.6875 353.011719 322.863281 352.273438 323.003906 C 351.539062 323.144531 350.796875 323.25 350.050781 323.316406 C 349.304688 323.382812 348.554688 323.414062 347.804688 323.40625 Z M 249.652344 323.117188 " fill-opacity="0.0784" fill-rule="nonzero"/><path fill="#d44c3d" d="M 187.042969 222.921875 L 14 97.296875 C 3.683594 89.726562 0.886719 75.160156 8.464844 64.949219 C 16.039062 54.742188 30.585938 52.414062 41.085938 59.996094 L 187.316406 166.382812 L 334.417969 58.550781 C 344.734375 50.980469 358.890625 53.308594 366.457031 63.792969 C 374.019531 74.113281 371.695312 88.28125 361.21875 95.851562 Z M 187.042969 222.921875 " fill-opacity="1" fill-rule="nonzero"/><path fill="#d44c3d" d="M 347.816406 57.65625 C 353.9375 57.65625 360.046875 60.570312 363.84375 65.820312 C 369.964844 74.5625 368.199219 86.8125 359.488281 93.351562 L 187.042969 218.851562 L 16.039062 94.683594 C 7.304688 88.257812 4.96875 75.722656 10.972656 67.152344 C 14.46875 61.910156 20.601562 58.699219 27.285156 58.699219 C 31.640625 58.699219 35.734375 59.867188 38.933594 62.484375 L 184.851562 168.585938 L 186.890625 169.757812 L 188.933594 168.585938 L 335.886719 60.84375 C 339.667969 58.800781 343.449219 57.632812 347.828125 57.632812 Z M 347.816406 54.15625 C 343.152344 54.15625 338.1875 55.328125 334.40625 58.515625 L 187.316406 166.375 L 40.800781 59.695312 C 37.015625 56.78125 32.066406 55.335938 27.113281 55.335938 C 19.835938 55.625 12.554688 58.835938 8.175781 64.972656 C 0.898438 75.296875 3.820312 89.460938 14 97.035156 L 187.042969 222.921875 L 361.21875 95.828125 C 361.824219 95.386719 362.40625 94.914062 362.964844 94.414062 C 363.523438 93.914062 364.058594 93.386719 364.566406 92.835938 C 365.074219 92.285156 365.554688 91.710938 366.007812 91.109375 C 366.460938 90.511719 366.882812 89.894531 367.273438 89.253906 C 367.667969 88.613281 368.027344 87.957031 368.355469 87.28125 C 368.683594 86.605469 368.980469 85.917969 369.242188 85.214844 C 369.503906 84.511719 369.730469 83.796875 369.921875 83.070312 C 370.113281 82.34375 370.269531 81.613281 370.390625 80.871094 C 370.511719 80.128906 370.597656 79.386719 370.644531 78.636719 C 370.695312 77.886719 370.707031 77.136719 370.683594 76.386719 C 370.660156 75.636719 370.597656 74.890625 370.503906 74.144531 C 370.40625 73.402344 370.273438 72.664062 370.105469 71.933594 C 369.9375 71.203125 369.734375 70.480469 369.496094 69.769531 C 369.257812 69.054688 368.984375 68.359375 368.675781 67.671875 C 368.371094 66.988281 368.03125 66.320312 367.660156 65.667969 C 367.289062 65.015625 366.886719 64.382812 366.457031 63.769531 C 361.789062 57.644531 354.808594 54.132812 347.816406 54.132812 Z M 347.816406 54.15625 " fill-opacity="1" fill-rule="nonzero"/></svg>