<svg xmlns="http://www.w3.org/2000/svg" xmlns:xlink="http://www.w3.org/1999/xlink" width="500" zoomAndPan="magnify" viewBox="0 0 375 374.999991" height="500" preserveAspectRatio="xMidYMid meet" version="1.0"><rect x="-37.5" width="450" fill="#ffffff" y="-37.499999" height="449.999989" fill-opacity="1"/><rect x="-37.5" width="450" fill="#ffffff" y="-37.499999" height="449.999989" fill-opacity="1"/><rect x="-37.5" width="450" fill="#ffffff" y="-37.499999" height="449.999989" fill-opacity="1"/><path fill="#8c52ff" d="M 195.839844 59.410156 C 176.464844 58.253906 157.726562 61.296875 140.074219 68.429688 C 138.382812 69.089844 137.316406 70.746094 137.316406 72.628906 C 137.316406 73.414062 137.476562 74.125 137.8125 74.765625 C 138.933594 76.882812 141.40625 77.773438 143.597656 76.882812 C 160.003906 70.226562 177.441406 67.417969 195.484375 68.539062 C 253.65625 72.203125 301.097656 118.683594 305.902344 176.660156 C 308.785156 211.5 296.328125 245.648438 271.734375 270.332031 C 247.125 295.011719 212.996094 307.558594 178.171875 304.800781 C 121.957031 300.277344 75.460938 254.582031 69.996094 198.527344 C 67.007812 167.566406 75.941406 137.242188 95.160156 113.113281 C 95.960938 112.097656 97.167969 111.476562 98.449219 111.40625 C 99.804688 111.335938 101.011719 111.816406 101.9375 112.738281 L 107.1875 117.988281 L 110.410156 90.960938 L 83.359375 94.375 L 88.964844 99.714844 C 90.621094 101.371094 90.746094 104.003906 89.25 105.816406 C 68.429688 131.191406 58.269531 163.332031 60.65625 196.339844 C 65.140625 258.035156 114.980469 308.535156 176.605469 313.804688 C 213.171875 316.898438 249.316406 304.335938 275.738281 279.226562 C 302.148438 254.121094 316.597656 218.816406 315.351562 182.335938 C 313.144531 117.367188 260.648438 63.359375 195.839844 59.410156 " fill-opacity="1" fill-rule="nonzero"/><path fill="#8c52ff" d="M 186.640625 127.6875 L 140.519531 141.121094 L 187.871094 154.664062 L 235.222656 141.121094 L 189.097656 127.6875 C 188.296875 127.457031 187.441406 127.457031 186.640625 127.6875 " fill-opacity="1" fill-rule="nonzero"/><path fill="#8c52ff" d="M 168.882812 189.4375 C 167.511719 189.4375 166.140625 189.222656 164.789062 188.832031 L 128.648438 178.082031 L 128.648438 233.601562 L 183.3125 249.191406 L 183.3125 178.101562 L 181.339844 181.925781 C 178.902344 186.625 174.042969 189.417969 168.882812 189.4375 " fill-opacity="1" fill-rule="nonzero"/><path fill="#8c52ff" d="M 255.722656 164.503906 C 256.238281 163.507812 256.34375 162.386719 256.023438 161.335938 L 249.15625 146.621094 L 194.472656 162.246094 L 202.496094 177.726562 C 203.546875 179.773438 206.054688 180.769531 208.351562 180.09375 L 252.800781 166.890625 C 254.082031 166.5 255.132812 165.660156 255.722656 164.503906 " fill-opacity="1" fill-rule="nonzero"/><path fill="#8c52ff" d="M 194.398438 181.925781 L 192.425781 178.101562 L 192.425781 249.207031 L 247.074219 233.601562 L 247.089844 178.082031 L 210.949219 188.832031 C 209.597656 189.222656 208.226562 189.417969 206.855469 189.417969 C 201.695312 189.417969 196.839844 186.625 194.398438 181.925781 " fill-opacity="1" fill-rule="nonzero"/><path fill="#8c52ff" d="M 119.714844 161.335938 C 119.394531 162.386719 119.503906 163.507812 120.019531 164.503906 C 120.605469 165.660156 121.65625 166.5 122.9375 166.890625 L 167.386719 180.09375 C 169.664062 180.789062 172.191406 179.753906 173.242188 177.746094 L 181.269531 162.246094 L 126.585938 146.621094 L 119.714844 161.335938 " fill-opacity="1" fill-rule="nonzero"/></svg>