<svg xmlns="http://www.w3.org/2000/svg" xmlns:xlink="http://www.w3.org/1999/xlink" width="500" zoomAndPan="magnify" viewBox="0 0 375 374.999991" height="500" preserveAspectRatio="xMidYMid meet" version="1.0"><defs><clipPath id="d18827d79f"><path d="M 150 84.972656 L 281 84.972656 L 281 179 L 150 179 Z M 150 84.972656 " clip-rule="nonzero"/></clipPath><clipPath id="678fe1c86f"><path d="M 159 182 L 289.722656 182 L 289.722656 289.722656 L 159 289.722656 Z M 159 182 " clip-rule="nonzero"/></clipPath><clipPath id="858745bd12"><path d="M 84.972656 140 L 216 140 L 216 248 L 84.972656 248 Z M 84.972656 140 " clip-rule="nonzero"/></clipPath></defs><rect x="-37.5" width="450" fill="#ffffff" y="-37.499999" height="449.999989" fill-opacity="1"/><rect x="-37.5" width="450" fill="#ffffff" y="-37.499999" height="449.999989" fill-opacity="1"/><rect x="-37.5" width="450" fill="#ffffff" y="-37.499999" height="449.999989" fill-opacity="1"/><g clip-path="url(#d18827d79f)"><path fill="#8c52ff" d="M 227.226562 178.039062 C 226.039062 178.050781 225 177.664062 224.109375 176.875 C 223.878906 176.671875 223.667969 176.449219 223.484375 176.203125 C 223.296875 175.957031 223.136719 175.695312 223.003906 175.421875 C 222.867188 175.144531 222.761719 174.855469 222.683594 174.558594 C 222.609375 174.261719 222.558594 173.957031 222.542969 173.648438 C 222.527344 173.34375 222.539062 173.035156 222.582031 172.730469 C 222.625 172.425781 222.699219 172.128906 222.800781 171.839844 C 222.902344 171.550781 223.035156 171.273438 223.191406 171.007812 C 223.347656 170.742188 223.53125 170.496094 223.738281 170.269531 L 227.878906 165.617188 C 228.324219 165.121094 228.851562 164.742188 229.457031 164.472656 C 230.066406 164.207031 230.703125 164.074219 231.367188 164.078125 L 266.453125 164.078125 C 266.761719 164.078125 267.0625 164.050781 267.363281 163.992188 C 267.664062 163.929688 267.953125 163.84375 268.234375 163.726562 C 268.519531 163.609375 268.785156 163.464844 269.039062 163.296875 C 269.292969 163.125 269.527344 162.933594 269.746094 162.714844 C 269.960938 162.5 270.152344 162.265625 270.324219 162.011719 C 270.492188 161.757812 270.636719 161.488281 270.753906 161.207031 C 270.871094 160.925781 270.960938 160.632812 271.019531 160.335938 C 271.078125 160.035156 271.109375 159.730469 271.109375 159.425781 L 271.109375 98.933594 C 271.109375 98.625 271.078125 98.324219 271.019531 98.023438 C 270.960938 97.722656 270.871094 97.433594 270.753906 97.152344 C 270.636719 96.867188 270.492188 96.601562 270.324219 96.347656 C 270.152344 96.09375 269.960938 95.859375 269.746094 95.640625 C 269.527344 95.425781 269.292969 95.234375 269.039062 95.0625 C 268.785156 94.894531 268.519531 94.75 268.234375 94.632812 C 267.953125 94.515625 267.664062 94.425781 267.363281 94.367188 C 267.0625 94.308594 266.761719 94.277344 266.453125 94.277344 L 164.078125 94.277344 C 163.773438 94.277344 163.472656 94.308594 163.171875 94.367188 C 162.871094 94.425781 162.582031 94.515625 162.300781 94.632812 C 162.015625 94.75 161.75 94.894531 161.496094 95.0625 C 161.242188 95.234375 161.003906 95.425781 160.789062 95.640625 C 160.574219 95.859375 160.378906 96.09375 160.210938 96.347656 C 160.039062 96.601562 159.898438 96.867188 159.78125 97.152344 C 159.664062 97.433594 159.574219 97.722656 159.515625 98.023438 C 159.457031 98.324219 159.425781 98.625 159.425781 98.933594 L 159.425781 131.503906 C 159.425781 131.8125 159.398438 132.113281 159.335938 132.414062 C 159.277344 132.714844 159.1875 133.003906 159.070312 133.285156 C 158.957031 133.570312 158.8125 133.835938 158.640625 134.089844 C 158.472656 134.34375 158.28125 134.582031 158.0625 134.796875 C 157.847656 135.011719 157.613281 135.207031 157.359375 135.375 C 157.105469 135.542969 156.835938 135.6875 156.554688 135.804688 C 156.269531 135.921875 155.980469 136.011719 155.679688 136.070312 C 155.382812 136.128906 155.078125 136.160156 154.773438 136.160156 C 154.46875 136.160156 154.164062 136.128906 153.863281 136.070312 C 153.566406 136.011719 153.273438 135.921875 152.992188 135.804688 C 152.710938 135.6875 152.441406 135.542969 152.1875 135.375 C 151.933594 135.207031 151.699219 135.011719 151.484375 134.796875 C 151.265625 134.582031 151.074219 134.34375 150.902344 134.089844 C 150.734375 133.835938 150.589844 133.570312 150.472656 133.285156 C 150.355469 133.003906 150.269531 132.714844 150.207031 132.414062 C 150.148438 132.113281 150.121094 131.8125 150.121094 131.503906 L 150.121094 98.933594 C 150.121094 98.015625 150.207031 97.109375 150.386719 96.207031 C 150.566406 95.308594 150.832031 94.4375 151.183594 93.589844 C 151.53125 92.742188 151.964844 91.9375 152.472656 91.175781 C 152.980469 90.414062 153.558594 89.707031 154.207031 89.0625 C 154.855469 88.414062 155.5625 87.832031 156.324219 87.324219 C 157.085938 86.816406 157.890625 86.386719 158.738281 86.035156 C 159.585938 85.683594 160.457031 85.417969 161.355469 85.238281 C 162.253906 85.0625 163.164062 84.972656 164.078125 84.972656 L 266.453125 84.972656 C 267.371094 84.972656 268.277344 85.0625 269.179688 85.238281 C 270.078125 85.417969 270.949219 85.683594 271.796875 86.035156 C 272.644531 86.386719 273.449219 86.816406 274.210938 87.324219 C 274.972656 87.832031 275.679688 88.414062 276.324219 89.0625 C 276.972656 89.707031 277.554688 90.414062 278.0625 91.175781 C 278.570312 91.9375 279 92.742188 279.351562 93.589844 C 279.703125 94.4375 279.96875 95.308594 280.148438 96.207031 C 280.324219 97.109375 280.414062 98.015625 280.414062 98.933594 L 280.414062 159.425781 C 280.414062 160.34375 280.324219 161.25 280.148438 162.148438 C 279.96875 163.046875 279.703125 163.921875 279.351562 164.769531 C 279 165.617188 278.570312 166.421875 278.0625 167.183594 C 277.554688 167.945312 276.972656 168.648438 276.324219 169.296875 C 275.679688 169.945312 274.972656 170.523438 274.210938 171.035156 C 273.449219 171.542969 272.644531 171.972656 271.796875 172.324219 C 270.949219 172.675781 270.078125 172.9375 269.179688 173.117188 C 268.277344 173.296875 267.371094 173.386719 266.453125 173.386719 L 233.460938 173.386719 L 230.671875 176.503906 C 230.230469 176.992188 229.710938 177.367188 229.109375 177.636719 C 228.511719 177.902344 227.882812 178.039062 227.226562 178.039062 Z M 227.226562 178.039062 " fill-opacity="1" fill-rule="nonzero"/></g><g clip-path="url(#678fe1c86f)"><path fill="#8c52ff" d="M 224.0625 289.722656 C 223.398438 289.726562 222.761719 289.59375 222.152344 289.328125 C 221.542969 289.058594 221.015625 288.679688 220.570312 288.1875 L 205.355469 271.109375 L 173.386719 271.109375 C 172.46875 271.109375 171.5625 271.019531 170.664062 270.839844 C 169.765625 270.660156 168.890625 270.394531 168.042969 270.046875 C 167.199219 269.695312 166.394531 269.265625 165.628906 268.753906 C 164.867188 268.246094 164.164062 267.667969 163.515625 267.019531 C 162.867188 266.371094 162.289062 265.664062 161.777344 264.902344 C 161.269531 264.140625 160.839844 263.335938 160.488281 262.488281 C 160.136719 261.644531 159.875 260.769531 159.695312 259.871094 C 159.515625 258.972656 159.425781 258.066406 159.425781 257.148438 L 159.425781 196.652344 C 159.425781 195.738281 159.515625 194.828125 159.695312 193.929688 C 159.875 193.03125 160.136719 192.15625 160.488281 191.3125 C 160.839844 190.464844 161.269531 189.660156 161.777344 188.898438 C 162.289062 188.136719 162.867188 187.429688 163.515625 186.78125 C 164.164062 186.132812 164.867188 185.554688 165.628906 185.046875 C 166.394531 184.535156 167.199219 184.105469 168.042969 183.757812 C 168.890625 183.40625 169.765625 183.140625 170.664062 182.960938 C 171.5625 182.78125 172.46875 182.691406 173.386719 182.691406 L 275.761719 182.691406 C 276.679688 182.691406 277.585938 182.78125 278.484375 182.960938 C 279.382812 183.140625 280.257812 183.40625 281.105469 183.757812 C 281.949219 184.105469 282.753906 184.535156 283.515625 185.046875 C 284.28125 185.554688 284.984375 186.132812 285.632812 186.78125 C 286.28125 187.429688 286.859375 188.136719 287.367188 188.898438 C 287.878906 189.660156 288.308594 190.464844 288.660156 191.3125 C 289.011719 192.15625 289.273438 193.03125 289.453125 193.929688 C 289.632812 194.828125 289.722656 195.738281 289.722656 196.652344 L 289.722656 257.148438 C 289.722656 258.066406 289.632812 258.972656 289.453125 259.871094 C 289.273438 260.769531 289.011719 261.644531 288.660156 262.488281 C 288.308594 263.335938 287.878906 264.140625 287.367188 264.902344 C 286.859375 265.664062 286.28125 266.371094 285.632812 267.019531 C 284.984375 267.667969 284.28125 268.246094 283.515625 268.753906 C 282.753906 269.265625 281.949219 269.695312 281.105469 270.046875 C 280.257812 270.394531 279.382812 270.660156 278.484375 270.839844 C 277.585938 271.019531 276.679688 271.109375 275.761719 271.109375 L 242.769531 271.109375 L 227.503906 288.1875 C 227.066406 288.671875 226.546875 289.050781 225.945312 289.316406 C 225.347656 289.585938 224.71875 289.71875 224.0625 289.722656 Z M 173.386719 192 C 173.082031 192 172.777344 192.03125 172.480469 192.089844 C 172.179688 192.148438 171.886719 192.238281 171.605469 192.355469 C 171.324219 192.472656 171.054688 192.613281 170.800781 192.785156 C 170.546875 192.953125 170.3125 193.148438 170.097656 193.363281 C 169.878906 193.578125 169.6875 193.8125 169.515625 194.066406 C 169.347656 194.324219 169.203125 194.589844 169.085938 194.871094 C 168.96875 195.15625 168.882812 195.445312 168.824219 195.746094 C 168.761719 196.046875 168.734375 196.347656 168.734375 196.652344 L 168.734375 257.148438 C 168.734375 257.453125 168.761719 257.757812 168.824219 258.054688 C 168.882812 258.355469 168.96875 258.644531 169.085938 258.929688 C 169.203125 259.210938 169.347656 259.480469 169.515625 259.734375 C 169.6875 259.988281 169.878906 260.222656 170.097656 260.4375 C 170.3125 260.65625 170.546875 260.847656 170.800781 261.015625 C 171.054688 261.1875 171.324219 261.332031 171.605469 261.445312 C 171.886719 261.5625 172.179688 261.652344 172.480469 261.710938 C 172.777344 261.769531 173.082031 261.800781 173.386719 261.800781 L 207.402344 261.800781 C 208.066406 261.796875 208.703125 261.925781 209.3125 262.195312 C 209.921875 262.464844 210.449219 262.84375 210.894531 263.335938 L 224.0625 278.089844 L 237.183594 263.335938 C 237.628906 262.84375 238.15625 262.464844 238.765625 262.195312 C 239.375 261.925781 240.011719 261.796875 240.675781 261.800781 L 275.761719 261.800781 C 276.066406 261.800781 276.371094 261.769531 276.667969 261.710938 C 276.96875 261.652344 277.261719 261.5625 277.542969 261.445312 C 277.824219 261.332031 278.09375 261.1875 278.347656 261.015625 C 278.601562 260.847656 278.835938 260.65625 279.050781 260.4375 C 279.269531 260.222656 279.460938 259.988281 279.628906 259.734375 C 279.800781 259.480469 279.945312 259.210938 280.0625 258.929688 C 280.175781 258.644531 280.265625 258.355469 280.324219 258.054688 C 280.386719 257.757812 280.414062 257.453125 280.414062 257.148438 L 280.414062 196.652344 C 280.414062 196.347656 280.386719 196.046875 280.324219 195.746094 C 280.265625 195.445312 280.175781 195.15625 280.0625 194.871094 C 279.945312 194.589844 279.800781 194.324219 279.628906 194.066406 C 279.460938 193.8125 279.269531 193.578125 279.050781 193.363281 C 278.835938 193.148438 278.601562 192.953125 278.347656 192.785156 C 278.09375 192.613281 277.824219 192.472656 277.542969 192.355469 C 277.261719 192.238281 276.96875 192.148438 276.667969 192.089844 C 276.371094 192.03125 276.066406 192 275.761719 192 Z M 173.386719 192 " fill-opacity="1" fill-rule="nonzero"/></g><path fill="#8c52ff" d="M 224.574219 261.800781 C 223.507812 261.800781 222.441406 261.75 221.382812 261.644531 C 220.320312 261.539062 219.265625 261.382812 218.21875 261.175781 C 217.171875 260.96875 216.140625 260.707031 215.117188 260.398438 C 214.097656 260.089844 213.09375 259.730469 212.109375 259.320312 C 211.121094 258.914062 210.160156 258.457031 209.21875 257.953125 C 208.277344 257.453125 207.363281 256.902344 206.476562 256.3125 C 205.589844 255.71875 204.734375 255.085938 203.910156 254.40625 C 203.085938 253.730469 202.296875 253.015625 201.539062 252.261719 C 200.785156 251.507812 200.070312 250.714844 199.394531 249.890625 C 198.71875 249.066406 198.082031 248.210938 197.488281 247.324219 C 196.898438 246.4375 196.347656 245.523438 195.847656 244.582031 C 195.34375 243.640625 194.886719 242.679688 194.480469 241.691406 C 194.070312 240.707031 193.710938 239.703125 193.402344 238.683594 C 193.09375 237.664062 192.835938 236.628906 192.625 235.582031 C 192.417969 234.535156 192.261719 233.480469 192.15625 232.421875 C 192.050781 231.359375 192 230.292969 192 229.226562 C 192 228.160156 192.050781 227.097656 192.15625 226.035156 C 192.261719 224.972656 192.417969 223.917969 192.625 222.871094 C 192.835938 221.828125 193.09375 220.792969 193.402344 219.773438 C 193.710938 218.75 194.070312 217.746094 194.480469 216.761719 C 194.886719 215.777344 195.34375 214.8125 195.847656 213.871094 C 196.347656 212.929688 196.898438 212.015625 197.488281 211.128906 C 198.082031 210.242188 198.71875 209.386719 199.394531 208.5625 C 200.070312 207.738281 200.785156 206.949219 201.539062 206.195312 C 202.296875 205.441406 203.085938 204.722656 203.910156 204.046875 C 204.734375 203.371094 205.589844 202.734375 206.476562 202.144531 C 207.363281 201.550781 208.277344 201.003906 209.21875 200.5 C 210.160156 199.996094 211.121094 199.542969 212.109375 199.132812 C 213.09375 198.726562 214.097656 198.367188 215.117188 198.054688 C 216.140625 197.746094 217.171875 197.488281 218.21875 197.28125 C 219.265625 197.070312 220.320312 196.914062 221.382812 196.808594 C 222.441406 196.707031 223.507812 196.652344 224.574219 196.652344 C 225.640625 196.652344 226.707031 196.707031 227.765625 196.808594 C 228.828125 196.914062 229.882812 197.070312 230.929688 197.28125 C 231.976562 197.488281 233.007812 197.746094 234.03125 198.054688 C 235.050781 198.367188 236.054688 198.726562 237.039062 199.132812 C 238.023438 199.542969 238.988281 199.996094 239.929688 200.5 C 240.871094 201.003906 241.785156 201.550781 242.671875 202.144531 C 243.558594 202.734375 244.414062 203.371094 245.238281 204.046875 C 246.0625 204.722656 246.851562 205.441406 247.605469 206.195312 C 248.363281 206.949219 249.078125 207.738281 249.753906 208.5625 C 250.429688 209.386719 251.066406 210.242188 251.65625 211.128906 C 252.25 212.015625 252.796875 212.929688 253.300781 213.871094 C 253.804688 214.8125 254.261719 215.777344 254.667969 216.761719 C 255.078125 217.746094 255.4375 218.75 255.746094 219.773438 C 256.054688 220.792969 256.3125 221.828125 256.523438 222.871094 C 256.730469 223.917969 256.886719 224.972656 256.992188 226.035156 C 257.09375 227.097656 257.148438 228.160156 257.148438 229.226562 C 257.148438 230.292969 257.09375 231.359375 256.992188 232.421875 C 256.886719 233.480469 256.730469 234.535156 256.523438 235.582031 C 256.3125 236.628906 256.054688 237.664062 255.746094 238.683594 C 255.4375 239.703125 255.078125 240.707031 254.667969 241.691406 C 254.261719 242.679688 253.804688 243.640625 253.300781 244.582031 C 252.796875 245.523438 252.25 246.4375 251.65625 247.324219 C 251.066406 248.210938 250.429688 249.066406 249.753906 249.890625 C 249.078125 250.714844 248.363281 251.507812 247.605469 252.261719 C 246.851562 253.015625 246.0625 253.730469 245.238281 254.40625 C 244.414062 255.085938 243.558594 255.71875 242.671875 256.3125 C 241.785156 256.902344 240.871094 257.453125 239.929688 257.953125 C 238.988281 258.457031 238.023438 258.914062 237.039062 259.320312 C 236.054688 259.730469 235.050781 260.089844 234.03125 260.398438 C 233.007812 260.707031 231.976562 260.96875 230.929688 261.175781 C 229.882812 261.382812 228.828125 261.539062 227.765625 261.644531 C 226.707031 261.75 225.640625 261.800781 224.574219 261.800781 Z M 224.574219 205.960938 C 223.8125 205.960938 223.050781 205.996094 222.292969 206.074219 C 221.535156 206.148438 220.78125 206.257812 220.035156 206.40625 C 219.289062 206.554688 218.550781 206.742188 217.820312 206.960938 C 217.089844 207.183594 216.375 207.441406 215.671875 207.730469 C 214.964844 208.023438 214.277344 208.347656 213.605469 208.707031 C 212.933594 209.066406 212.28125 209.457031 211.648438 209.882812 C 211.015625 210.304688 210.402344 210.757812 209.8125 211.242188 C 209.222656 211.726562 208.660156 212.234375 208.121094 212.773438 C 207.582031 213.3125 207.070312 213.878906 206.589844 214.46875 C 206.105469 215.054688 205.652344 215.667969 205.226562 216.300781 C 204.804688 216.933594 204.414062 217.585938 204.054688 218.257812 C 203.695312 218.929688 203.371094 219.621094 203.078125 220.324219 C 202.785156 221.027344 202.53125 221.746094 202.308594 222.472656 C 202.085938 223.203125 201.902344 223.941406 201.753906 224.6875 C 201.605469 225.4375 201.492188 226.1875 201.417969 226.945312 C 201.34375 227.707031 201.308594 228.464844 201.308594 229.226562 C 201.308594 229.988281 201.34375 230.75 201.417969 231.507812 C 201.492188 232.265625 201.605469 233.019531 201.753906 233.765625 C 201.902344 234.515625 202.085938 235.253906 202.308594 235.980469 C 202.53125 236.710938 202.785156 237.425781 203.078125 238.132812 C 203.371094 238.835938 203.695312 239.523438 204.054688 240.195312 C 204.414062 240.867188 204.804688 241.519531 205.226562 242.152344 C 205.652344 242.789062 206.105469 243.398438 206.589844 243.988281 C 207.070312 244.578125 207.582031 245.140625 208.121094 245.679688 C 208.660156 246.21875 209.222656 246.730469 209.8125 247.214844 C 210.402344 247.695312 211.015625 248.148438 211.648438 248.574219 C 212.28125 248.996094 212.933594 249.386719 213.605469 249.746094 C 214.277344 250.105469 214.964844 250.433594 215.671875 250.722656 C 216.375 251.015625 217.089844 251.269531 217.820312 251.492188 C 218.550781 251.714844 219.289062 251.898438 220.035156 252.046875 C 220.78125 252.195312 221.535156 252.308594 222.292969 252.382812 C 223.050781 252.457031 223.8125 252.496094 224.574219 252.496094 C 225.335938 252.496094 226.097656 252.457031 226.855469 252.382812 C 227.613281 252.308594 228.367188 252.195312 229.113281 252.046875 C 229.859375 251.898438 230.597656 251.714844 231.328125 251.492188 C 232.058594 251.269531 232.773438 251.015625 233.476562 250.722656 C 234.183594 250.433594 234.871094 250.105469 235.542969 249.746094 C 236.214844 249.386719 236.867188 248.996094 237.5 248.574219 C 238.132812 248.148438 238.746094 247.695312 239.335938 247.214844 C 239.921875 246.730469 240.488281 246.21875 241.027344 245.679688 C 241.566406 245.140625 242.078125 244.578125 242.558594 243.988281 C 243.042969 243.398438 243.496094 242.789062 243.917969 242.152344 C 244.34375 241.519531 244.734375 240.867188 245.09375 240.195312 C 245.453125 239.523438 245.777344 238.835938 246.070312 238.132812 C 246.363281 237.425781 246.617188 236.710938 246.839844 235.980469 C 247.058594 235.253906 247.246094 234.515625 247.394531 233.765625 C 247.542969 233.019531 247.65625 232.265625 247.730469 231.507812 C 247.804688 230.75 247.839844 229.988281 247.839844 229.226562 C 247.839844 228.464844 247.804688 227.707031 247.730469 226.945312 C 247.65625 226.1875 247.542969 225.4375 247.394531 224.6875 C 247.246094 223.941406 247.058594 223.203125 246.839844 222.472656 C 246.617188 221.742188 246.363281 221.027344 246.070312 220.324219 C 245.777344 219.621094 245.453125 218.929688 245.09375 218.257812 C 244.734375 217.585938 244.34375 216.933594 243.917969 216.300781 C 243.496094 215.667969 243.042969 215.054688 242.558594 214.46875 C 242.078125 213.878906 241.566406 213.3125 241.027344 212.773438 C 240.488281 212.234375 239.921875 211.726562 239.335938 211.242188 C 238.746094 210.757812 238.132812 210.304688 237.5 209.882812 C 236.867188 209.457031 236.214844 209.066406 235.542969 208.707031 C 234.871094 208.347656 234.183594 208.023438 233.476562 207.730469 C 232.773438 207.441406 232.058594 207.183594 231.328125 206.960938 C 230.597656 206.742188 229.859375 206.554688 229.113281 206.40625 C 228.367188 206.257812 227.613281 206.148438 226.855469 206.074219 C 226.097656 205.996094 225.335938 205.960938 224.574219 205.960938 Z M 224.574219 205.960938 " fill-opacity="1" fill-rule="nonzero"/><path fill="#8c52ff" d="M 224.574219 245.515625 C 223.65625 245.515625 222.75 245.425781 221.851562 245.246094 C 220.953125 245.066406 220.078125 244.800781 219.230469 244.453125 C 218.386719 244.101562 217.582031 243.671875 216.816406 243.160156 C 216.054688 242.652344 215.351562 242.074219 214.703125 241.425781 C 214.054688 240.777344 213.476562 240.070312 212.964844 239.308594 C 212.457031 238.546875 212.027344 237.742188 211.675781 236.894531 C 211.324219 236.050781 211.0625 235.175781 210.882812 234.277344 C 210.703125 233.378906 210.613281 232.472656 210.613281 231.554688 C 210.613281 231.25 210.644531 230.945312 210.703125 230.644531 C 210.761719 230.347656 210.851562 230.054688 210.96875 229.773438 C 211.085938 229.492188 211.226562 229.222656 211.398438 228.96875 C 211.566406 228.714844 211.761719 228.480469 211.976562 228.261719 C 212.191406 228.046875 212.429688 227.855469 212.683594 227.683594 C 212.9375 227.515625 213.203125 227.371094 213.488281 227.253906 C 213.769531 227.136719 214.058594 227.050781 214.359375 226.988281 C 214.660156 226.929688 214.960938 226.902344 215.265625 226.902344 C 215.574219 226.902344 215.875 226.929688 216.175781 226.988281 C 216.476562 227.050781 216.765625 227.136719 217.046875 227.253906 C 217.332031 227.371094 217.597656 227.515625 217.851562 227.683594 C 218.105469 227.855469 218.339844 228.046875 218.558594 228.261719 C 218.773438 228.480469 218.964844 228.714844 219.136719 228.96875 C 219.304688 229.222656 219.449219 229.492188 219.566406 229.773438 C 219.683594 230.054688 219.773438 230.347656 219.832031 230.644531 C 219.890625 230.945312 219.921875 231.25 219.921875 231.554688 C 219.921875 231.859375 219.949219 232.164062 220.011719 232.460938 C 220.070312 232.761719 220.15625 233.050781 220.273438 233.335938 C 220.390625 233.617188 220.535156 233.886719 220.703125 234.140625 C 220.875 234.394531 221.066406 234.628906 221.285156 234.84375 C 221.5 235.0625 221.734375 235.253906 221.988281 235.421875 C 222.242188 235.59375 222.511719 235.738281 222.792969 235.851562 C 223.074219 235.96875 223.367188 236.058594 223.667969 236.117188 C 223.964844 236.175781 224.269531 236.207031 224.574219 236.207031 C 224.878906 236.207031 225.183594 236.175781 225.480469 236.117188 C 225.78125 236.058594 226.074219 235.96875 226.355469 235.851562 C 226.636719 235.738281 226.90625 235.59375 227.160156 235.421875 C 227.414062 235.253906 227.648438 235.0625 227.863281 234.84375 C 228.082031 234.628906 228.273438 234.394531 228.441406 234.140625 C 228.613281 233.886719 228.757812 233.617188 228.875 233.335938 C 228.988281 233.050781 229.078125 232.761719 229.136719 232.460938 C 229.199219 232.164062 229.226562 231.859375 229.226562 231.554688 C 229.226562 231.25 229.257812 230.945312 229.316406 230.644531 C 229.375 230.347656 229.464844 230.054688 229.582031 229.773438 C 229.699219 229.492188 229.84375 229.222656 230.011719 228.96875 C 230.179688 228.714844 230.375 228.480469 230.589844 228.261719 C 230.804688 228.046875 231.042969 227.855469 231.296875 227.683594 C 231.550781 227.515625 231.816406 227.371094 232.101562 227.253906 C 232.382812 227.136719 232.671875 227.050781 232.972656 226.988281 C 233.273438 226.929688 233.574219 226.902344 233.878906 226.902344 C 234.1875 226.902344 234.488281 226.929688 234.789062 226.988281 C 235.089844 227.050781 235.378906 227.136719 235.660156 227.253906 C 235.945312 227.371094 236.210938 227.515625 236.464844 227.683594 C 236.71875 227.855469 236.957031 228.046875 237.171875 228.261719 C 237.386719 228.480469 237.582031 228.714844 237.75 228.96875 C 237.917969 229.222656 238.0625 229.492188 238.179688 229.773438 C 238.296875 230.054688 238.386719 230.347656 238.445312 230.644531 C 238.503906 230.945312 238.535156 231.25 238.535156 231.554688 C 238.535156 232.472656 238.445312 233.378906 238.265625 234.277344 C 238.085938 235.175781 237.824219 236.050781 237.472656 236.894531 C 237.121094 237.742188 236.691406 238.546875 236.179688 239.308594 C 235.671875 240.070312 235.09375 240.777344 234.445312 241.425781 C 233.796875 242.074219 233.09375 242.652344 232.328125 243.160156 C 231.566406 243.671875 230.761719 244.101562 229.917969 244.453125 C 229.070312 244.800781 228.195312 245.066406 227.296875 245.246094 C 226.398438 245.425781 225.492188 245.515625 224.574219 245.515625 Z M 224.574219 245.515625 " fill-opacity="1" fill-rule="nonzero"/><g clip-path="url(#858745bd12)"><path fill="#8c52ff" d="M 149.609375 247.839844 C 148.949219 247.839844 148.324219 247.703125 147.722656 247.4375 C 147.125 247.171875 146.605469 246.792969 146.164062 246.304688 L 130.855469 229.226562 L 98.933594 229.226562 C 98.015625 229.226562 97.109375 229.136719 96.207031 228.960938 C 95.308594 228.78125 94.4375 228.515625 93.589844 228.164062 C 92.742188 227.8125 91.9375 227.382812 91.175781 226.875 C 90.414062 226.367188 89.707031 225.785156 89.0625 225.136719 C 88.414062 224.492188 87.832031 223.785156 87.324219 223.023438 C 86.816406 222.261719 86.386719 221.457031 86.035156 220.609375 C 85.683594 219.761719 85.417969 218.890625 85.238281 217.992188 C 85.0625 217.089844 84.972656 216.183594 84.972656 215.265625 L 84.972656 154.773438 C 84.972656 153.855469 85.0625 152.949219 85.238281 152.050781 C 85.417969 151.148438 85.683594 150.277344 86.035156 149.429688 C 86.386719 148.582031 86.816406 147.777344 87.324219 147.015625 C 87.832031 146.253906 88.414062 145.550781 89.0625 144.902344 C 89.707031 144.253906 90.414062 143.675781 91.175781 143.164062 C 91.9375 142.65625 92.742188 142.226562 93.589844 141.875 C 94.4375 141.523438 95.308594 141.257812 96.207031 141.082031 C 97.109375 140.902344 98.015625 140.8125 98.933594 140.8125 L 201.308594 140.8125 C 202.222656 140.8125 203.132812 140.902344 204.03125 141.082031 C 204.929688 141.257812 205.800781 141.523438 206.648438 141.875 C 207.496094 142.226562 208.300781 142.65625 209.0625 143.164062 C 209.824219 143.675781 210.53125 144.253906 211.179688 144.902344 C 211.828125 145.550781 212.40625 146.253906 212.914062 147.015625 C 213.421875 147.777344 213.855469 148.582031 214.203125 149.429688 C 214.554688 150.277344 214.820312 151.148438 215 152.050781 C 215.179688 152.949219 215.265625 153.855469 215.265625 154.773438 L 215.265625 173.386719 C 215.265625 173.691406 215.238281 173.996094 215.179688 174.292969 C 215.117188 174.59375 215.03125 174.886719 214.914062 175.167969 C 214.796875 175.449219 214.652344 175.71875 214.484375 175.972656 C 214.3125 176.226562 214.121094 176.460938 213.902344 176.675781 C 213.6875 176.894531 213.453125 177.085938 213.199219 177.253906 C 212.945312 177.425781 212.675781 177.570312 212.394531 177.6875 C 212.113281 177.800781 211.820312 177.890625 211.523438 177.949219 C 211.222656 178.011719 210.917969 178.039062 210.613281 178.039062 C 210.308594 178.039062 210.003906 178.011719 209.707031 177.949219 C 209.40625 177.890625 209.117188 177.800781 208.832031 177.6875 C 208.550781 177.570312 208.28125 177.425781 208.027344 177.253906 C 207.773438 177.085938 207.539062 176.894531 207.324219 176.675781 C 207.105469 176.460938 206.914062 176.226562 206.746094 175.972656 C 206.574219 175.71875 206.429688 175.449219 206.316406 175.167969 C 206.199219 174.886719 206.109375 174.59375 206.050781 174.292969 C 205.988281 173.996094 205.960938 173.691406 205.960938 173.386719 L 205.960938 154.773438 C 205.960938 154.46875 205.929688 154.164062 205.871094 153.863281 C 205.8125 153.566406 205.722656 153.273438 205.605469 152.992188 C 205.488281 152.710938 205.347656 152.441406 205.175781 152.1875 C 205.007812 151.933594 204.8125 151.699219 204.597656 151.484375 C 204.382812 151.265625 204.144531 151.074219 203.890625 150.902344 C 203.636719 150.734375 203.371094 150.589844 203.085938 150.472656 C 202.804688 150.355469 202.515625 150.269531 202.214844 150.207031 C 201.914062 150.148438 201.613281 150.121094 201.308594 150.121094 L 98.933594 150.121094 C 98.625 150.121094 98.324219 150.148438 98.023438 150.207031 C 97.722656 150.269531 97.433594 150.355469 97.152344 150.472656 C 96.867188 150.589844 96.601562 150.734375 96.347656 150.902344 C 96.09375 151.074219 95.859375 151.265625 95.640625 151.484375 C 95.425781 151.699219 95.234375 151.933594 95.0625 152.1875 C 94.894531 152.441406 94.75 152.710938 94.632812 152.992188 C 94.515625 153.273438 94.425781 153.566406 94.367188 153.863281 C 94.308594 154.164062 94.277344 154.46875 94.277344 154.773438 L 94.277344 215.265625 C 94.277344 215.574219 94.308594 215.875 94.367188 216.175781 C 94.425781 216.476562 94.515625 216.765625 94.632812 217.046875 C 94.75 217.332031 94.894531 217.597656 95.0625 217.851562 C 95.234375 218.105469 95.425781 218.339844 95.640625 218.558594 C 95.859375 218.773438 96.09375 218.964844 96.347656 219.136719 C 96.601562 219.304688 96.867188 219.449219 97.152344 219.566406 C 97.433594 219.683594 97.722656 219.773438 98.023438 219.832031 C 98.324219 219.890625 98.625 219.921875 98.933594 219.921875 L 132.949219 219.921875 C 133.613281 219.914062 134.25 220.046875 134.859375 220.316406 C 135.464844 220.582031 135.992188 220.960938 136.4375 221.457031 L 153.097656 240.070312 C 153.304688 240.296875 153.484375 240.542969 153.644531 240.808594 C 153.800781 241.074219 153.929688 241.351562 154.03125 241.640625 C 154.136719 241.929688 154.207031 242.230469 154.25 242.535156 C 154.296875 242.839844 154.308594 243.144531 154.292969 243.453125 C 154.273438 243.757812 154.226562 244.0625 154.148438 244.359375 C 154.070312 244.65625 153.964844 244.945312 153.832031 245.222656 C 153.695312 245.5 153.535156 245.757812 153.351562 246.003906 C 153.164062 246.25 152.957031 246.472656 152.726562 246.675781 C 151.835938 247.464844 150.796875 247.851562 149.609375 247.839844 Z M 149.609375 247.839844 " fill-opacity="1" fill-rule="nonzero"/></g><path fill="#8c52ff" d="M 238.535156 112.890625 L 178.039062 112.890625 C 177.734375 112.890625 177.433594 112.863281 177.132812 112.804688 C 176.832031 112.742188 176.542969 112.65625 176.257812 112.539062 C 175.976562 112.421875 175.707031 112.277344 175.453125 112.109375 C 175.199219 111.9375 174.964844 111.746094 174.75 111.527344 C 174.535156 111.3125 174.339844 111.078125 174.171875 110.824219 C 174 110.570312 173.859375 110.300781 173.742188 110.019531 C 173.625 109.738281 173.535156 109.445312 173.476562 109.148438 C 173.417969 108.847656 173.386719 108.542969 173.386719 108.238281 C 173.386719 107.933594 173.417969 107.628906 173.476562 107.332031 C 173.535156 107.03125 173.625 106.742188 173.742188 106.457031 C 173.859375 106.175781 174 105.90625 174.171875 105.652344 C 174.339844 105.398438 174.535156 105.164062 174.75 104.949219 C 174.964844 104.730469 175.199219 104.539062 175.453125 104.371094 C 175.707031 104.199219 175.976562 104.054688 176.257812 103.941406 C 176.542969 103.824219 176.832031 103.734375 177.132812 103.675781 C 177.433594 103.613281 177.734375 103.585938 178.039062 103.585938 L 238.535156 103.585938 C 238.839844 103.585938 239.140625 103.613281 239.441406 103.675781 C 239.742188 103.734375 240.03125 103.824219 240.316406 103.941406 C 240.597656 104.054688 240.867188 104.199219 241.121094 104.371094 C 241.375 104.539062 241.609375 104.730469 241.824219 104.949219 C 242.039062 105.164062 242.234375 105.398438 242.402344 105.652344 C 242.574219 105.90625 242.714844 106.175781 242.832031 106.457031 C 242.949219 106.742188 243.039062 107.03125 243.097656 107.332031 C 243.15625 107.628906 243.1875 107.933594 243.1875 108.238281 C 243.1875 108.542969 243.15625 108.847656 243.097656 109.148438 C 243.039062 109.445312 242.949219 109.738281 242.832031 110.019531 C 242.714844 110.300781 242.574219 110.570312 242.402344 110.824219 C 242.234375 111.078125 242.039062 111.3125 241.824219 111.527344 C 241.609375 111.746094 241.375 111.9375 241.121094 112.109375 C 240.867188 112.277344 240.597656 112.421875 240.316406 112.539062 C 240.03125 112.65625 239.742188 112.742188 239.441406 112.804688 C 239.140625 112.863281 238.839844 112.890625 238.535156 112.890625 Z M 238.535156 112.890625 " fill-opacity="1" fill-rule="nonzero"/><path fill="#8c52ff" d="M 215.265625 131.503906 L 178.039062 131.503906 C 177.734375 131.503906 177.433594 131.476562 177.132812 131.417969 C 176.832031 131.355469 176.542969 131.269531 176.257812 131.152344 C 175.976562 131.035156 175.707031 130.890625 175.453125 130.722656 C 175.199219 130.550781 174.964844 130.359375 174.75 130.144531 C 174.535156 129.925781 174.339844 129.691406 174.171875 129.4375 C 174 129.183594 173.859375 128.914062 173.742188 128.632812 C 173.625 128.351562 173.535156 128.058594 173.476562 127.761719 C 173.417969 127.460938 173.386719 127.15625 173.386719 126.851562 C 173.386719 126.546875 173.417969 126.246094 173.476562 125.945312 C 173.535156 125.644531 173.625 125.355469 173.742188 125.070312 C 173.859375 124.789062 174 124.519531 174.171875 124.265625 C 174.339844 124.011719 174.535156 123.777344 174.75 123.5625 C 174.964844 123.347656 175.199219 123.152344 175.453125 122.984375 C 175.707031 122.8125 175.976562 122.671875 176.257812 122.554688 C 176.542969 122.4375 176.832031 122.347656 177.132812 122.289062 C 177.433594 122.230469 177.734375 122.199219 178.039062 122.199219 L 215.265625 122.199219 C 215.574219 122.199219 215.875 122.230469 216.175781 122.289062 C 216.476562 122.347656 216.765625 122.4375 217.046875 122.554688 C 217.332031 122.671875 217.597656 122.8125 217.851562 122.984375 C 218.105469 123.152344 218.339844 123.347656 218.558594 123.5625 C 218.773438 123.777344 218.964844 124.011719 219.136719 124.265625 C 219.304688 124.519531 219.449219 124.789062 219.566406 125.070312 C 219.683594 125.355469 219.773438 125.644531 219.832031 125.945312 C 219.890625 126.246094 219.921875 126.546875 219.921875 126.851562 C 219.921875 127.15625 219.890625 127.460938 219.832031 127.761719 C 219.773438 128.058594 219.683594 128.351562 219.566406 128.632812 C 219.449219 128.914062 219.304688 129.183594 219.136719 129.4375 C 218.964844 129.691406 218.773438 129.925781 218.558594 130.144531 C 218.339844 130.359375 218.105469 130.550781 217.851562 130.722656 C 217.597656 130.890625 217.332031 131.035156 217.046875 131.152344 C 216.765625 131.269531 216.476562 131.355469 216.175781 131.417969 C 215.875 131.476562 215.574219 131.503906 215.265625 131.503906 Z M 215.265625 131.503906 " fill-opacity="1" fill-rule="nonzero"/><path fill="#8c52ff" d="M 150.121094 218.429688 C 148.832031 218.4375 147.730469 217.988281 146.816406 217.082031 L 127.269531 197.585938 C 114.984375 185.300781 116.195312 172.921875 122.617188 166.640625 C 129.039062 160.355469 138.953125 159.425781 150.121094 168.453125 C 151.441406 167.246094 152.878906 166.199219 154.429688 165.308594 C 155.984375 164.421875 157.613281 163.710938 159.324219 163.179688 C 161.03125 162.648438 162.777344 162.308594 164.5625 162.164062 C 166.347656 162.015625 168.125 162.066406 169.894531 162.3125 C 171.148438 162.558594 172.347656 162.957031 173.5 163.5 C 174.652344 164.046875 175.722656 164.726562 176.703125 165.539062 C 177.6875 166.351562 178.554688 167.273438 179.308594 168.300781 C 180.0625 169.332031 180.679688 170.4375 181.15625 171.617188 C 181.269531 171.902344 181.355469 172.195312 181.410156 172.496094 C 181.46875 172.796875 181.492188 173.101562 181.488281 173.40625 C 181.484375 173.710938 181.449219 174.015625 181.386719 174.3125 C 181.324219 174.613281 181.230469 174.902344 181.109375 175.183594 C 180.988281 175.464844 180.839844 175.730469 180.667969 175.984375 C 180.492188 176.234375 180.296875 176.46875 180.078125 176.679688 C 179.859375 176.894531 179.621094 177.082031 179.363281 177.25 C 179.105469 177.414062 178.835938 177.554688 178.550781 177.667969 C 178.269531 177.78125 177.976562 177.867188 177.675781 177.921875 C 177.375 177.976562 177.070312 178.003906 176.765625 178 C 176.457031 177.996094 176.15625 177.960938 175.855469 177.894531 C 175.558594 177.832031 175.269531 177.738281 174.988281 177.621094 C 174.707031 177.5 174.4375 177.351562 174.1875 177.175781 C 173.9375 177.003906 173.703125 176.808594 173.488281 176.585938 C 173.277344 176.367188 173.085938 176.128906 172.921875 175.875 C 172.753906 175.617188 172.613281 175.347656 172.503906 175.0625 C 172.308594 174.578125 172.054688 174.128906 171.746094 173.710938 C 171.433594 173.296875 171.074219 172.925781 170.664062 172.601562 C 170.257812 172.28125 169.816406 172.015625 169.335938 171.808594 C 168.859375 171.601562 168.363281 171.460938 167.847656 171.386719 C 166.46875 171.339844 165.097656 171.457031 163.746094 171.730469 C 162.390625 172.003906 161.085938 172.429688 159.828125 173.007812 C 158.574219 173.582031 157.398438 174.296875 156.308594 175.148438 C 155.21875 176 154.242188 176.960938 153.375 178.039062 C 153.160156 178.257812 152.925781 178.453125 152.671875 178.625 C 152.414062 178.796875 152.144531 178.941406 151.863281 179.058594 C 151.578125 179.175781 151.285156 179.265625 150.984375 179.324219 C 150.683594 179.386719 150.378906 179.417969 150.074219 179.417969 C 149.765625 179.417969 149.460938 179.386719 149.160156 179.324219 C 148.859375 179.265625 148.566406 179.175781 148.285156 179.058594 C 148 178.941406 147.730469 178.796875 147.476562 178.625 C 147.222656 178.453125 146.984375 178.257812 146.769531 178.039062 C 139.371094 170.640625 132.25 170.035156 129.039062 173.386719 C 125.828125 176.738281 126.433594 183.71875 133.691406 191.117188 L 153.375 210.613281 C 153.59375 210.832031 153.789062 211.066406 153.960938 211.320312 C 154.132812 211.574219 154.277344 211.84375 154.394531 212.128906 C 154.511719 212.410156 154.601562 212.703125 154.664062 213.003906 C 154.722656 213.304688 154.753906 213.609375 154.753906 213.917969 C 154.753906 214.226562 154.722656 214.527344 154.664062 214.832031 C 154.601562 215.132812 154.511719 215.421875 154.394531 215.707031 C 154.277344 215.992188 154.132812 216.261719 153.960938 216.515625 C 153.789062 216.769531 153.59375 217.003906 153.375 217.222656 C 152.453125 218.0625 151.367188 218.464844 150.121094 218.429688 Z M 150.121094 218.429688 " fill-opacity="1" fill-rule="nonzero"/></svg>