<svg xmlns="http://www.w3.org/2000/svg" xmlns:xlink="http://www.w3.org/1999/xlink" width="500" zoomAndPan="magnify" viewBox="0 0 375 374.999991" height="500" preserveAspectRatio="xMidYMid meet" version="1.0"><defs><clipPath id="24f26508a9"><path d="M 0 39.609375 L 252 39.609375 L 252 333.609375 L 0 333.609375 Z M 0 39.609375 " clip-rule="nonzero"/></clipPath><clipPath id="e4705b303a"><path d="M 0 39.609375 L 155 39.609375 L 155 333.609375 L 0 333.609375 Z M 0 39.609375 " clip-rule="nonzero"/></clipPath><clipPath id="90d4b52b4b"><path d="M 176 39.609375 L 372.75 39.609375 L 372.75 333.609375 L 176 333.609375 Z M 176 39.609375 " clip-rule="nonzero"/></clipPath><clipPath id="3c566f4453"><path d="M 176 217 L 372.75 217 L 372.75 333.609375 L 176 333.609375 Z M 176 217 " clip-rule="nonzero"/></clipPath><clipPath id="74ad0a8294"><path d="M 215 100 L 372.75 100 L 372.75 216 L 215 216 Z M 215 100 " clip-rule="nonzero"/></clipPath></defs><g clip-path="url(#24f26508a9)"><path fill="#5538b7" d="M 251.347656 39.804688 L 154.882812 333.507812 L 96.121094 333.507812 L 0 39.804688 L 66.785156 39.804688 L 125.371094 235.835938 L 184.132812 39.804688 Z M 251.347656 39.804688 " fill-opacity="1" fill-rule="nonzero"/></g><g clip-path="url(#e4705b303a)"><path fill="#ffffff" d="M 154.882812 333.507812 L 96.121094 333.507812 L 0 39.804688 L 66.785156 39.804688 L 125.371094 235.835938 Z M 154.882812 333.507812 " fill-opacity="0.1176" fill-rule="nonzero"/></g><g clip-path="url(#90d4b52b4b)"><path fill="#b968e0" d="M 273.332031 39.800781 L 254.003906 98.558594 L 284.550781 98.558594 C 288.605469 98.558594 292.488281 99.335938 296.023438 100.800781 C 299.5625 102.269531 302.667969 104.425781 305.257812 107.1875 C 308.019531 109.773438 310.089844 112.882812 311.640625 116.417969 C 313.109375 119.957031 313.886719 123.753906 313.886719 127.894531 C 313.886719 131.949219 313.109375 135.917969 311.640625 139.542969 C 310.175781 143.078125 308.019531 146.1875 305.257812 148.945312 C 302.667969 151.535156 299.5625 153.605469 296.023438 155.074219 C 292.488281 156.539062 288.691406 157.316406 284.550781 157.316406 L 234.675781 157.316406 L 215.347656 216.074219 L 284.550781 216.074219 C 288.605469 216.074219 292.488281 216.851562 296.023438 218.316406 C 299.5625 219.785156 302.667969 221.941406 305.257812 224.703125 C 308.019531 227.292969 310.089844 230.398438 311.640625 233.933594 C 313.109375 237.472656 313.886719 241.269531 313.886719 245.410156 C 313.886719 249.464844 313.109375 253.347656 311.640625 256.886719 C 310.175781 260.421875 308.019531 263.617188 305.257812 266.289062 C 302.667969 268.878906 299.5625 270.949219 296.023438 272.417969 C 292.488281 273.882812 288.691406 274.660156 284.550781 274.660156 L 196.539062 274.660156 L 196.539062 273.453125 L 176.867188 333.332031 L 284.550781 333.332031 C 296.714844 333.332031 308.105469 331.003906 318.71875 326.34375 C 329.332031 321.683594 338.648438 315.386719 346.585938 307.535156 C 354.613281 299.507812 360.996094 290.105469 365.65625 279.492188 C 370.316406 268.878906 372.644531 257.402344 372.644531 245.324219 C 372.644531 239.886719 371.867188 234.28125 370.402344 228.5 C 369.023438 222.632812 366.949219 217.023438 364.277344 211.675781 C 361.515625 206.324219 358.234375 201.492188 354.441406 197.179688 C 350.644531 192.691406 346.328125 189.15625 341.582031 186.566406 C 346.242188 183.71875 350.46875 180.09375 354.265625 175.695312 C 358.0625 171.292969 361.34375 166.460938 364.101562 161.199219 C 366.863281 155.851562 368.933594 150.328125 370.488281 144.632812 C 371.957031 138.9375 372.730469 133.332031 372.730469 127.808594 C 372.730469 115.640625 370.402344 104.253906 365.742188 93.640625 C 361.082031 83.027344 354.785156 73.710938 346.675781 65.769531 C 338.734375 57.746094 329.503906 51.363281 318.804688 46.703125 C 308.191406 42.042969 296.800781 39.714844 284.636719 39.714844 Z M 273.332031 39.800781 " fill-opacity="1" fill-rule="nonzero"/></g><g clip-path="url(#3c566f4453)"><path fill="#ffffff" d="M 176.867188 333.332031 L 196.105469 274.746094 L 284.550781 274.746094 C 296.714844 274.746094 308.105469 272.417969 318.71875 267.757812 C 329.332031 263.097656 338.648438 256.800781 346.585938 248.949219 C 354.613281 240.925781 360.996094 231.519531 365.65625 220.90625 C 366.089844 219.871094 366.519531 218.75 366.949219 217.714844 C 368.332031 221.164062 369.539062 224.789062 370.402344 228.5 C 371.867188 234.195312 372.644531 239.800781 372.644531 245.324219 C 372.644531 257.488281 370.316406 268.878906 365.65625 279.492188 C 360.996094 290.105469 354.699219 299.507812 346.585938 307.535156 C 338.648438 315.472656 329.417969 321.683594 318.71875 326.34375 C 308.105469 331.003906 296.714844 333.332031 284.550781 333.332031 Z M 176.867188 333.332031 " fill-opacity="0.1176" fill-rule="nonzero"/></g><g clip-path="url(#74ad0a8294)"><path fill="#ffffff" d="M 215.433594 215.816406 L 234.675781 157.230469 L 284.550781 157.230469 C 296.714844 157.230469 308.105469 154.902344 318.71875 150.242188 C 329.332031 145.582031 338.648438 139.285156 346.585938 131.433594 C 354.613281 123.40625 360.996094 114.003906 365.65625 103.390625 C 366.089844 102.355469 366.519531 101.234375 366.949219 100.199219 C 368.332031 103.648438 369.539062 107.273438 370.402344 110.984375 C 371.867188 116.675781 372.644531 122.285156 372.644531 127.808594 C 372.644531 139.972656 370.316406 151.363281 365.65625 161.976562 C 360.996094 172.589844 354.699219 181.992188 346.585938 190.015625 C 338.648438 197.957031 329.417969 204.167969 318.71875 208.828125 C 308.105469 213.484375 296.714844 215.816406 284.550781 215.816406 Z M 215.433594 215.816406 " fill-opacity="0.1176" fill-rule="nonzero"/></g></svg>